<?xml version="1.0" standalone="no"?>
<!DOCTYPE svg PUBLIC "-//W3C//DTD SVG 20010904//EN"
 "http://www.w3.org/TR/2001/REC-SVG-20010904/DTD/svg10.dtd">
<svg version="1.0" xmlns="http://www.w3.org/2000/svg"
 width="512.000000pt" height="512.000000pt" viewBox="0 0 512.000000 512.000000"
 preserveAspectRatio="xMidYMid meet">

<g transform="translate(0.000000,512.000000) scale(0.100000,-0.100000)"
fill="#fff" stroke="none">
<path d="M1602 4376 c-24 -8 -61 -27 -83 -42 -45 -31 -125 -133 -166 -211 -27
-52 -29 -53 -73 -53 -25 0 -62 -3 -82 -6 -48 -8 -48 1 1 64 28 34 60 60 107
83 79 40 92 57 78 96 -16 47 -51 51 -128 15 -88 -41 -160 -115 -215 -221 -23
-44 -48 -81 -56 -81 -31 0 -350 -178 -535 -298 -243 -158 -315 -229 -340 -333
-16 -66 -8 -126 30 -241 61 -183 182 -355 286 -408 27 -13 73 -29 103 -35 l55
-11 28 -85 c29 -87 46 -109 83 -109 26 0 55 29 55 56 0 27 -126 401 -145 430
-29 44 -105 21 -105 -32 0 -10 9 -43 20 -71 19 -50 19 -53 2 -53 -35 0 -107
60 -154 129 -60 86 -56 155 12 237 68 82 90 185 48 224 -44 41 -93 15 -100
-54 -4 -32 -17 -60 -44 -96 l-39 -51 -12 33 c-31 86 -3 162 85 230 124 97 334
230 551 348 132 72 226 104 338 114 l61 5 -5 -37 c-12 -89 90 -101 118 -15 22
70 91 197 142 266 82 108 175 136 261 76 57 -39 70 -72 76 -186 l5 -103 60
-60 c118 -120 285 -173 545 -173 161 0 226 11 399 69 194 65 373 178 379 241
4 35 -19 63 -51 63 -13 0 -49 -20 -82 -45 -125 -93 -280 -156 -469 -190 -186
-33 -470 -5 -559 56 -18 12 -49 38 -69 58 -38 35 -38 36 -38 116 0 95 -25 160
-85 220 -72 71 -198 102 -293 71z"/>
<path d="M3317 3967 c-58 -18 -107 -62 -107 -97 0 -58 54 -78 106 -38 36 29
120 34 280 19 389 -38 696 -176 921 -414 76 -81 182 -231 170 -243 -3 -3 -37
11 -77 31 -81 41 -113 41 -132 0 -21 -46 1 -70 114 -124 112 -54 252 -99 336
-108 58 -6 92 12 92 51 0 41 -28 60 -101 71 -25 4 -50 10 -56 13 -5 4 -24 39
-42 77 -146 315 -436 561 -809 684 -223 74 -579 114 -695 78z"/>
<path d="M997 3663 c-60 -27 -75 -51 -62 -93 12 -36 49 -43 108 -18 29 12 60
28 70 36 36 31 9 102 -39 102 -10 0 -45 -12 -77 -27z"/>
<path d="M3658 3623 c-19 -20 -23 -50 -10 -69 15 -22 52 -34 109 -34 32 0 87
-7 122 -15 58 -14 66 -14 88 0 20 13 24 23 21 53 -3 35 -6 38 -58 56 -33 11
-96 21 -155 23 -90 5 -102 3 -117 -14z"/>
<path d="M2918 3598 c-24 -24 -23 -61 3 -84 19 -17 38 -19 219 -19 181 0 200
2 219 19 24 22 27 54 7 81 -13 17 -30 19 -222 19 -186 1 -211 -1 -226 -16z"/>
<path d="M2474 3542 c-6 -4 -17 -18 -24 -31 -10 -20 -9 -27 7 -50 50 -66 167
-27 134 45 -16 36 -86 57 -117 36z"/>
<path d="M2037 3505 c-18 -17 -21 -42 -11 -70 11 -28 204 -115 255 -115 29 0
59 31 59 61 0 25 -27 44 -130 89 -114 51 -150 58 -173 35z"/>
<path d="M2826 3397 c-21 -16 -24 -60 -6 -82 7 -8 30 -20 52 -26 63 -17 107
23 87 79 -14 38 -96 56 -133 29z"/>
<path d="M3790 3387 c-27 -14 -35 -36 -26 -72 5 -18 17 -27 44 -34 32 -8 178
-44 239 -58 47 -11 83 66 46 99 -22 19 -96 43 -178 58 -33 6 -69 13 -80 15
-11 2 -31 -1 -45 -8z"/>
<path d="M2256 3158 c-40 -57 -6 -88 158 -144 81 -28 109 -30 130 -8 20 19 21
68 2 83 -7 6 -44 22 -82 35 -38 13 -86 31 -106 40 -52 22 -84 20 -102 -6z"/>
<path d="M3066 3149 c-22 -32 -20 -52 7 -76 25 -23 137 -43 243 -43 56 0 68 4
89 25 29 28 31 42 11 71 -13 18 -29 22 -123 28 -59 3 -131 9 -159 12 -46 6
-53 4 -68 -17z"/>
<path d="M1846 3134 c-9 -8 -16 -28 -16 -44 0 -24 12 -39 74 -87 87 -67 253
-173 272 -173 7 0 25 10 40 23 42 36 28 68 -48 115 -33 20 -105 70 -160 110
-101 74 -133 85 -162 56z"/>
<path d="M690 3092 c-32 -26 -30 -70 6 -100 41 -34 87 -62 102 -62 20 0 52 38
52 63 0 23 -40 67 -90 100 -31 21 -43 21 -70 -1z"/>
<path d="M4027 3032 c-41 -45 -13 -88 68 -103 33 -6 85 -24 116 -41 66 -36
104 -33 120 9 19 50 -34 97 -150 133 -80 25 -133 26 -154 2z"/>
<path d="M4835 2903 c-18 -18 -18 -39 5 -183 5 -36 10 -111 10 -167 0 -92 -2
-104 -22 -123 -15 -13 -35 -20 -63 -20 -44 0 -85 -22 -85 -46 0 -55 -117 -248
-197 -326 l-48 -47 -80 35 c-108 48 -111 49 -140 30 -30 -20 -34 -65 -7 -89
45 -41 258 -117 329 -117 17 0 39 7 47 16 18 18 21 65 5 81 -8 8 5 30 45 79
31 38 77 113 103 166 35 71 53 97 67 97 70 3 151 81 166 159 16 87 -21 422
-50 457 -17 20 -65 19 -85 -2z"/>
<path d="M1430 2890 c-11 -11 -20 -29 -20 -39 0 -48 245 -321 288 -321 28 0
62 33 62 61 0 13 -29 52 -73 98 -40 42 -93 101 -117 131 -76 96 -101 109 -140
70z"/>
<path d="M875 2859 c-62 -7 -84 -14 -97 -30 -24 -28 -23 -54 3 -80 18 -18 29
-20 73 -15 28 3 81 8 117 12 l66 6 30 -53 c126 -221 370 -476 600 -627 l71
-47 31 -90 c102 -301 120 -617 55 -971 l-17 -92 24 -48 c36 -72 84 -94 209
-94 168 1 208 34 276 226 79 224 144 508 160 705 4 44 12 83 18 85 6 2 31 -2
56 -10 l45 -13 6 -164 c6 -158 25 -307 55 -434 22 -94 19 -108 -28 -153 -23
-22 -56 -49 -74 -58 l-32 -18 -36 32 c-42 37 -68 40 -96 12 -30 -30 -24 -58
23 -105 33 -34 53 -45 88 -50 59 -9 102 9 185 77 106 85 120 139 84 303 -29
136 -50 314 -50 431 0 96 2 105 18 100 53 -16 281 -39 441 -45 l184 -6 12 -40
c31 -103 113 -211 233 -307 47 -38 76 -67 74 -76 -11 -51 -170 -336 -200 -360
-19 -14 -155 -17 -181 -2 -30 15 -31 36 -10 97 50 142 61 288 33 433 -28 152
-57 194 -115 170 -40 -17 -43 -37 -17 -126 18 -63 23 -104 23 -199 -1 -107 -4
-131 -33 -227 -29 -93 -32 -111 -23 -146 26 -95 89 -131 230 -132 134 0 167
17 236 124 29 45 79 134 111 198 32 65 63 118 68 118 5 0 7 -59 4 -142 -6
-159 0 -190 47 -239 45 -48 81 -59 200 -59 116 0 160 12 207 57 48 46 63 110
63 273 0 127 -4 157 -28 243 -41 150 -33 251 33 381 48 94 45 100 -91 165 -77
37 -89 40 -113 30 -29 -14 -44 -53 -29 -78 5 -9 30 -27 56 -41 25 -14 48 -28
51 -31 3 -3 -6 -39 -21 -80 -36 -104 -38 -259 -5 -374 45 -153 39 -375 -11
-410 -15 -11 -48 -15 -113 -15 -129 0 -130 1 -125 179 1 79 -2 155 -8 178 -10
37 -19 45 -101 94 -162 94 -269 199 -319 309 -39 85 -22 228 41 354 34 68 104
171 137 200 42 38 16 106 -40 106 -70 0 -225 -247 -266 -424 l-18 -79 -175 6
c-259 8 -497 45 -690 106 -63 20 -66 20 -90 2 -23 -17 -26 -28 -37 -147 -24
-250 -77 -500 -155 -724 -54 -154 -60 -160 -164 -160 -95 0 -120 14 -109 59
40 157 59 406 45 582 -10 127 -48 346 -70 403 -5 14 -7 26 -3 26 3 0 41 -21
84 -46 85 -50 107 -51 136 -8 27 42 7 64 -154 159 -200 120 -313 195 -404 271
-154 128 -318 321 -401 472 -22 40 -49 79 -61 87 -24 17 -102 18 -232 4z"/>
<path d="M1786 2834 c-31 -30 -20 -66 37 -121 74 -72 145 -123 171 -123 29 0
56 30 56 62 0 19 -13 36 -47 64 -27 21 -71 59 -100 86 -55 51 -89 60 -117 32z"/>
<path d="M3269 2829 c-25 -25 -24 -42 5 -76 24 -27 24 -27 156 -27 132 0 132
0 156 27 28 32 29 46 10 73 -13 17 -28 19 -162 20 -131 1 -149 -1 -165 -17z"/>
<path d="M2656 2824 c-24 -24 -20 -71 7 -89 76 -49 230 -90 268 -71 29 15 40
47 25 77 -9 18 -29 28 -91 44 -44 12 -94 29 -112 38 -40 21 -77 22 -97 1z"/>
<path d="M3857 2712 c-22 -24 -22 -65 1 -84 10 -9 58 -21 115 -28 90 -12 99
-11 117 5 11 10 20 28 20 40 0 39 -24 57 -96 71 -97 19 -138 18 -157 -4z"/>
<path d="M2704 2425 c-27 -28 -26 -59 4 -83 40 -31 191 -53 217 -32 18 15 20
73 3 88 -10 8 -174 52 -194 52 -3 0 -16 -11 -30 -25z"/>
<path d="M3140 2380 c-45 -45 -15 -89 82 -118 155 -48 238 -37 238 32 0 18 -6
38 -12 44 -7 5 -49 15 -93 20 -44 6 -100 18 -124 27 -56 20 -67 19 -91 -5z"/>
<path d="M4207 2369 c-37 -21 -38 -77 -3 -102 17 -12 170 -57 192 -57 46 0 72
72 38 101 -13 11 -185 68 -204 68 -3 0 -13 -4 -23 -10z"/>
<path d="M2350 2310 c-44 -44 -13 -88 104 -145 82 -40 172 -65 233 -65 32 0
46 5 57 22 35 50 6 82 -94 102 -45 9 -110 33 -165 61 -49 25 -96 45 -102 45
-7 0 -22 -9 -33 -20z"/>
<path d="M2070 2182 c-14 -11 -22 -29 -22 -47 0 -36 31 -62 127 -111 60 -29
75 -33 98 -25 27 11 44 48 33 76 -3 9 -20 23 -37 33 -17 9 -60 34 -94 55 -74
43 -75 43 -105 19z"/>
<path d="M3070 2140 c-40 -40 -13 -93 54 -105 46 -9 75 2 87 32 12 33 -4 61
-46 79 -47 19 -71 18 -95 -6z"/>
<path d="M3660 1750 c-38 -38 -21 -80 48 -111 81 -37 180 -69 212 -69 21 0 35
8 47 26 15 23 15 29 2 52 -8 15 -31 32 -54 41 -22 7 -78 29 -125 47 -99 40
-104 40 -130 14z"/>
</g>
</svg>
